<svg xmlns="http://www.w3.org/2000/svg" class="scenery" viewBox="0 0 590 270" fill="none" aria-hidden="true"><defs><linearGradient id="sea" x2="0" y2="1"><stop stop-color="#94beb2"/><stop offset="1" stop-color="#548f83"/></linearGradient></defs><circle cx="460" cy="65" r="41" fill="#edb08c"/><path d="M0 183C95 124 155 159 240 128S414 121 590 135V270H0Z" fill="#bdcbbc"/><path d="M0 201C100 176 199 198 281 165S455 144 590 165V270H0Z" fill="url(#sea)"/><path d="M0 247C99 219 206 268 315 242S484 192 590 219" stroke="#e4e8d3" stroke-width="2"/><path d="M17 266c116-27 178 14 290-5M353 208l134-16M425 224l98-8" stroke="#d7e2d2" stroke-width="2" opacity=".6"/><path d="m277 162 39-86 5 83M307 160l48-105 7 104M345 157l39-78 6 79M377 158l24-52 29 59" fill="#f8f4df" stroke="#ced7c7" stroke-width="1.5"/><path d="m269 164 164 4-8 12-156-5Z" fill="#d9d7be"/><path d="M43 150v-38h23v34m6 1V92h19v49m7 0V61h24v80m9-3v-29h28v29m9 2V85h18v58m10 1v-36h27v41" fill="#7a9988"/><path d="M95 58h28M108 36v24" stroke="#7a9988" stroke-width="3"/><path d="M0 239c57-36 122-29 166-18l-8 49H0" fill="#d9d5b9"/><path d="m510 89 6-4 6 4m14 8 7-4 7 4" stroke="#6f8f7e" stroke-width="2"/><path d="M195 40c27-20 53-18 76-6" stroke="#b5bcaa" stroke-dasharray="4 6"/><path d="m270 34-6-6m6 6-9 1" stroke="#8f9d8c"/></svg>